<svg xmlns="http://www.w3.org/2000/svg" version="1.1">
<polygon points="0.0,0.0 3.125,6.25 6.25,0.0" style="fill:black;"/>
<polygon points="3.125,6.25 6.25,12.5 9.375,6.25" style="fill:black;"/>
<polygon points="6.25,0.0 9.375,6.25 12.5,0.0" style="fill:black;"/>
<polygon points="6.25,12.5 9.375,18.75 12.5,12.5" style="fill:black;"/>
<polygon points="9.375,18.75 12.5,25.0 15.625,18.75" style="fill:black;"/>
<polygon points="12.5,12.5 15.625,18.75 18.75,12.5" style="fill:black;"/>
<polygon points="12.5,0.0 15.625,6.25 18.75,0.0" style="fill:black;"/>
<polygon points="15.625,6.25 18.75,12.5 21.875,6.25" style="fill:black;"/>
<polygon points="18.75,0.0 21.875,6.25 25.0,0.0" style="fill:black;"/>
<polygon points="12.5,25.0 15.625,31.25 18.75,25.0" style="fill:black;"/>
<polygon points="15.625,31.25 18.75,37.5 21.875,31.25" style="fill:black;"/>
<polygon points="18.75,25.0 21.875,31.25 25.0,25.0" style="fill:black;"/>
<polygon points="18.75,37.5 21.875,43.75 25.0,37.5" style="fill:black;"/>
<polygon points="21.875,43.75 25.0,50.0 28.125,43.75" style="fill:black;"/>
<polygon points="25.0,37.5 28.125,43.75 31.25,37.5" style="fill:black;"/>
<polygon points="25.0,25.0 28.125,31.25 31.25,25.0" style="fill:black;"/>
<polygon points="28.125,31.25 31.25,37.5 34.375,31.25" style="fill:black;"/>
<polygon points="31.25,25.0 34.375,31.25 37.5,25.0" style="fill:black;"/>
<polygon points="25.0,0.0 28.125,6.25 31.25,0.0" style="fill:black;"/>
<polygon points="28.125,6.25 31.25,12.5 34.375,6.25" style="fill:black;"/>
<polygon points="31.25,0.0 34.375,6.25 37.5,0.0" style="fill:black;"/>
<polygon points="31.25,12.5 34.375,18.75 37.5,12.5" style="fill:black;"/>
<polygon points="34.375,18.75 37.5,25.0 40.625,18.75" style="fill:black;"/>
<polygon points="37.5,12.5 40.625,18.75 43.75,12.5" style="fill:black;"/>
<polygon points="37.5,0.0 40.625,6.25 43.75,0.0" style="fill:black;"/>
<polygon points="40.625,6.25 43.75,12.5 46.875,6.25" style="fill:black;"/>
<polygon points="43.75,0.0 46.875,6.25 50.0,0.0" style="fill:black;"/>
<polygon points="25.0,50.0 28.125,56.25 31.25,50.0" style="fill:black;"/>
<polygon points="28.125,56.25 31.25,62.5 34.375,56.25" style="fill:black;"/>
<polygon points="31.25,50.0 34.375,56.25 37.5,50.0" style="fill:black;"/>
<polygon points="31.25,62.5 34.375,68.75 37.5,62.5" style="fill:black;"/>
<polygon points="34.375,68.75 37.5,75.0 40.625,68.75" style="fill:black;"/>
<polygon points="37.5,62.5 40.625,68.75 43.75,62.5" style="fill:black;"/>
<polygon points="37.5,50.0 40.625,56.25 43.75,50.0" style="fill:black;"/>
<polygon points="40.625,56.25 43.75,62.5 46.875,56.25" style="fill:black;"/>
<polygon points="43.75,50.0 46.875,56.25 50.0,50.0" style="fill:black;"/>
<polygon points="37.5,75.0 40.625,81.25 43.75,75.0" style="fill:black;"/>
<polygon points="40.625,81.25 43.75,87.5 46.875,81.25" style="fill:black;"/>
<polygon points="43.75,75.0 46.875,81.25 50.0,75.0" style="fill:black;"/>
<polygon points="43.75,87.5 46.875,93.75 50.0,87.5" style="fill:black;"/>
<polygon points="46.875,93.75 50.0,100.0 53.125,93.75" style="fill:black;"/>
<polygon points="50.0,87.5 53.125,93.75 56.25,87.5" style="fill:black;"/>
<polygon points="50.0,75.0 53.125,81.25 56.25,75.0" style="fill:black;"/>
<polygon points="53.125,81.25 56.25,87.5 59.375,81.25" style="fill:black;"/>
<polygon points="56.25,75.0 59.375,81.25 62.5,75.0" style="fill:black;"/>
<polygon points="50.0,50.0 53.125,56.25 56.25,50.0" style="fill:black;"/>
<polygon points="53.125,56.25 56.25,62.5 59.375,56.25" style="fill:black;"/>
<polygon points="56.25,50.0 59.375,56.25 62.5,50.0" style="fill:black;"/>
<polygon points="56.25,62.5 59.375,68.75 62.5,62.5" style="fill:black;"/>
<polygon points="59.375,68.75 62.5,75.0 65.625,68.75" style="fill:black;"/>
<polygon points="62.5,62.5 65.625,68.75 68.75,62.5" style="fill:black;"/>
<polygon points="62.5,50.0 65.625,56.25 68.75,50.0" style="fill:black;"/>
<polygon points="65.625,56.25 68.75,62.5 71.875,56.25" style="fill:black;"/>
<polygon points="68.75,50.0 71.875,56.25 75.0,50.0" style="fill:black;"/>
<polygon points="50.0,0.0 53.125,6.25 56.25,0.0" style="fill:black;"/>
<polygon points="53.125,6.25 56.25,12.5 59.375,6.25" style="fill:black;"/>
<polygon points="56.25,0.0 59.375,6.25 62.5,0.0" style="fill:black;"/>
<polygon points="56.25,12.5 59.375,18.75 62.5,12.5" style="fill:black;"/>
<polygon points="59.375,18.75 62.5,25.0 65.625,18.75" style="fill:black;"/>
<polygon points="62.5,12.5 65.625,18.75 68.75,12.5" style="fill:black;"/>
<polygon points="62.5,0.0 65.625,6.25 68.75,0.0" style="fill:black;"/>
<polygon points="65.625,6.25 68.75,12.5 71.875,6.25" style="fill:black;"/>
<polygon points="68.75,0.0 71.875,6.25 75.0,0.0" style="fill:black;"/>
<polygon points="62.5,25.0 65.625,31.25 68.75,25.0" style="fill:black;"/>
<polygon points="65.625,31.25 68.75,37.5 71.875,31.25" style="fill:black;"/>
<polygon points="68.75,25.0 71.875,31.25 75.0,25.0" style="fill:black;"/>
<polygon points="68.75,37.5 71.875,43.75 75.0,37.5" style="fill:black;"/>
<polygon points="71.875,43.75 75.0,50.0 78.125,43.75" style="fill:black;"/>
<polygon points="75.0,37.5 78.125,43.75 81.25,37.5" style="fill:black;"/>
<polygon points="75.0,25.0 78.125,31.25 81.25,25.0" style="fill:black;"/>
<polygon points="78.125,31.25 81.25,37.5 84.375,31.25" style="fill:black;"/>
<polygon points="81.25,25.0 84.375,31.25 87.5,25.0" style="fill:black;"/>
<polygon points="75.0,0.0 78.125,6.25 81.25,0.0" style="fill:black;"/>
<polygon points="78.125,6.25 81.25,12.5 84.375,6.25" style="fill:black;"/>
<polygon points="81.25,0.0 84.375,6.25 87.5,0.0" style="fill:black;"/>
<polygon points="81.25,12.5 84.375,18.75 87.5,12.5" style="fill:black;"/>
<polygon points="84.375,18.75 87.5,25.0 90.625,18.75" style="fill:black;"/>
<polygon points="87.5,12.5 90.625,18.75 93.75,12.5" style="fill:black;"/>
<polygon points="87.5,0.0 90.625,6.25 93.75,0.0" style="fill:black;"/>
<polygon points="90.625,6.25 93.75,12.5 96.875,6.25" style="fill:black;"/>
<polygon points="93.75,0.0 96.875,6.25 100.0,0.0" style="fill:black;"/>
</svg>
