<svg xmlns="http://www.w3.org/2000/svg" version="1.1">
<polygon points="0.0,0.0 6.25,12.5 12.5,0.0"  style="fill:black;"/>
<polygon points="6.25,12.5 12.5,25.0 18.75,12.5"  style="fill:black;"/>
<polygon points="12.5,0.0 18.75,12.5 25.0,0.0"  style="fill:black;"/>
<polygon points="12.5,25.0 18.75,37.5 25.0,25.0"  style="fill:black;"/>
<polygon points="18.75,37.5 25.0,50.0 31.25,37.5"  style="fill:black;"/>
<polygon points="25.0,25.0 31.25,37.5 37.5,25.0"  style="fill:black;"/>
<polygon points="25.0,0.0 31.25,12.5 37.5,0.0"  style="fill:black;"/>
<polygon points="31.25,12.5 37.5,25.0 43.75,12.5"  style="fill:black;"/>
<polygon points="37.5,0.0 43.75,12.5 50.0,0.0"  style="fill:black;"/>
<polygon points="25.0,50.0 31.25,62.5 37.5,50.0"  style="fill:black;"/>
<polygon points="31.25,62.5 37.5,75.0 43.75,62.5"  style="fill:black;"/>
<polygon points="37.5,50.0 43.75,62.5 50.0,50.0"  style="fill:black;"/>
<polygon points="37.5,75.0 43.75,87.5 50.0,75.0"  style="fill:black;"/>
<polygon points="43.75,87.5 50.0,100.0 56.25,87.5"  style="fill:black;"/>
<polygon points="50.0,75.0 56.25,87.5 62.5,75.0"  style="fill:black;"/>
<polygon points="50.0,50.0 56.25,62.5 62.5,50.0"  style="fill:black;"/>
<polygon points="56.25,62.5 62.5,75.0 68.75,62.5"  style="fill:black;"/>
<polygon points="62.5,50.0 68.75,62.5 75.0,50.0"  style="fill:black;"/>
<polygon points="50.0,0.0 56.25,12.5 62.5,0.0"  style="fill:black;"/>
<polygon points="56.25,12.5 62.5,25.0 68.75,12.5"  style="fill:black;"/>
<polygon points="62.5,0.0 68.75,12.5 75.0,0.0"  style="fill:black;"/>
<polygon points="62.5,25.0 68.75,37.5 75.0,25.0"  style="fill:black;"/>
<polygon points="68.75,37.5 75.0,50.0 81.25,37.5"  style="fill:black;"/>
<polygon points="75.0,25.0 81.25,37.5 87.5,25.0"  style="fill:black;"/>
<polygon points="75.0,0.0 81.25,12.5 87.5,0.0"  style="fill:black;"/>
<polygon points="81.25,12.5 87.5,25.0 93.75,12.5"  style="fill:black;"/>
<polygon points="87.5,0.0 93.75,12.5 100.0,0.0"  style="fill:black;"/>
<polygon points="50.0,100.0 56.25,112.5 62.5,100.0"  style="fill:black;"/>
<polygon points="56.25,112.5 62.5,125.0 68.75,112.5"  style="fill:black;"/>
<polygon points="62.5,100.0 68.75,112.5 75.0,100.0"  style="fill:black;"/>
<polygon points="62.5,125.0 68.75,137.5 75.0,125.0"  style="fill:black;"/>
<polygon points="68.75,137.5 75.0,150.0 81.25,137.5"  style="fill:black;"/>
<polygon points="75.0,125.0 81.25,137.5 87.5,125.0"  style="fill:black;"/>
<polygon points="75.0,100.0 81.25,112.5 87.5,100.0"  style="fill:black;"/>
<polygon points="81.25,112.5 87.5,125.0 93.75,112.5"  style="fill:black;"/>
<polygon points="87.5,100.0 93.75,112.5 100.0,100.0"  style="fill:black;"/>
<polygon points="75.0,150.0 81.25,162.5 87.5,150.0"  style="fill:black;"/>
<polygon points="81.25,162.5 87.5,175.0 93.75,162.5"  style="fill:black;"/>
<polygon points="87.5,150.0 93.75,162.5 100.0,150.0"  style="fill:black;"/>
<polygon points="87.5,175.0 93.75,187.5 100.0,175.0"  style="fill:black;"/>
<polygon points="93.75,187.5 100.0,200.0 106.25,187.5"  style="fill:black;"/>
<polygon points="100.0,175.0 106.25,187.5 112.5,175.0"  style="fill:black;"/>
<polygon points="100.0,150.0 106.25,162.5 112.5,150.0"  style="fill:black;"/>
<polygon points="106.25,162.5 112.5,175.0 118.75,162.5"  style="fill:black;"/>
<polygon points="112.5,150.0 118.75,162.5 125.0,150.0"  style="fill:black;"/>
<polygon points="100.0,100.0 106.25,112.5 112.5,100.0"  style="fill:black;"/>
<polygon points="106.25,112.5 112.5,125.0 118.75,112.5"  style="fill:black;"/>
<polygon points="112.5,100.0 118.75,112.5 125.0,100.0"  style="fill:black;"/>
<polygon points="112.5,125.0 118.75,137.5 125.0,125.0"  style="fill:black;"/>
<polygon points="118.75,137.5 125.0,150.0 131.25,137.5"  style="fill:black;"/>
<polygon points="125.0,125.0 131.25,137.5 137.5,125.0"  style="fill:black;"/>
<polygon points="125.0,100.0 131.25,112.5 137.5,100.0"  style="fill:black;"/>
<polygon points="131.25,112.5 137.5,125.0 143.75,112.5"  style="fill:black;"/>
<polygon points="137.5,100.0 143.75,112.5 150.0,100.0"  style="fill:black;"/>
<polygon points="100.0,0.0 106.25,12.5 112.5,0.0"  style="fill:black;"/>
<polygon points="106.25,12.5 112.5,25.0 118.75,12.5"  style="fill:black;"/>
<polygon points="112.5,0.0 118.75,12.5 125.0,0.0"  style="fill:black;"/>
<polygon points="112.5,25.0 118.75,37.5 125.0,25.0"  style="fill:black;"/>
<polygon points="118.75,37.5 125.0,50.0 131.25,37.5"  style="fill:black;"/>
<polygon points="125.0,25.0 131.25,37.5 137.5,25.0"  style="fill:black;"/>
<polygon points="125.0,0.0 131.25,12.5 137.5,0.0"  style="fill:black;"/>
<polygon points="131.25,12.5 137.5,25.0 143.75,12.5"  style="fill:black;"/>
<polygon points="137.5,0.0 143.75,12.5 150.0,0.0"  style="fill:black;"/>
<polygon points="125.0,50.0 131.25,62.5 137.5,50.0"  style="fill:black;"/>
<polygon points="131.25,62.5 137.5,75.0 143.75,62.5"  style="fill:black;"/>
<polygon points="137.5,50.0 143.75,62.5 150.0,50.0"  style="fill:black;"/>
<polygon points="137.5,75.0 143.75,87.5 150.0,75.0"  style="fill:black;"/>
<polygon points="143.75,87.5 150.0,100.0 156.25,87.5"  style="fill:black;"/>
<polygon points="150.0,75.0 156.25,87.5 162.5,75.0"  style="fill:black;"/>
<polygon points="150.0,50.0 156.25,62.5 162.5,50.0"  style="fill:black;"/>
<polygon points="156.25,62.5 162.5,75.0 168.75,62.5"  style="fill:black;"/>
<polygon points="162.5,50.0 168.75,62.5 175.0,50.0"  style="fill:black;"/>
<polygon points="150.0,0.0 156.25,12.5 162.5,0.0"  style="fill:black;"/>
<polygon points="156.25,12.5 162.5,25.0 168.75,12.5"  style="fill:black;"/>
<polygon points="162.5,0.0 168.75,12.5 175.0,0.0"  style="fill:black;"/>
<polygon points="162.5,25.0 168.75,37.5 175.0,25.0"  style="fill:black;"/>
<polygon points="168.75,37.5 175.0,50.0 181.25,37.5"  style="fill:black;"/>
<polygon points="175.0,25.0 181.25,37.5 187.5,25.0"  style="fill:black;"/>
<polygon points="175.0,0.0 181.25,12.5 187.5,0.0"  style="fill:black;"/>
<polygon points="181.25,12.5 187.5,25.0 193.75,12.5"  style="fill:black;"/>
<polygon points="187.5,0.0 193.75,12.5 200.0,0.0"  style="fill:black;"/></svg>
